<?xml version="1.0" encoding="UTF-8"?><svg id="a" xmlns="http://www.w3.org/2000/svg" viewBox="0 0 1358.04 1377.18"><defs><style>.b{stroke-width:7.91px;}.b,.c{stroke:#181818;}.b,.c,.d{fill:none;}.e{fill:#181818;}.f,.g{fill:#006838;}.f,.d{stroke:#000;stroke-miterlimit:10;stroke-width:1.64px;}.h{fill:#231f20;font-family:Lekton-Bold, Lekton;font-size:57.6px;}.c{stroke-width:9.83px;}</style></defs><path class="e" d="M679.02,39.02c353.46,0,640,286.54,640,640s-286.54,640-640,640S39.02,1032.48,39.02,679.02,325.56,39.02,679.02,39.02m0-39.02c-91.65,0-180.58,17.96-264.32,53.38-40.24,17.02-79.05,38.09-115.36,62.61-35.95,24.29-69.75,52.17-100.47,82.89-30.72,30.72-58.61,64.52-82.89,100.47-24.52,36.3-45.59,75.11-62.61,115.36C17.96,498.44,0,587.37,0,679.02s17.96,180.58,53.38,264.32c17.02,40.24,38.09,79.05,62.61,115.36,24.29,35.95,52.17,69.75,82.89,100.47s64.52,58.61,100.47,82.89c36.3,24.52,75.11,45.59,115.36,62.61,83.74,35.42,172.67,53.38,264.32,53.38s180.58-17.96,264.32-53.38c40.24-17.02,79.05-38.09,115.36-62.61,35.95-24.29,69.75-52.17,100.47-82.89s58.61-64.52,82.89-100.47c24.53-36.3,45.59-75.11,62.61-115.36,35.42-83.74,53.38-172.67,53.38-264.32s-17.96-180.58-53.38-264.32c-17.02-40.24-38.09-79.05-62.61-115.36-24.29-35.95-52.17-69.75-82.89-100.47-30.72-30.72-64.52-58.61-100.47-82.89-36.3-24.53-75.11-45.59-115.36-62.61C859.6,17.96,770.67,0,679.02,0h0Z"/><circle class="c" cx="681.33" cy="679.02" r="614.58"/><text class="h" transform="translate(149.66 875.51) rotate(68.31)"><tspan x="0" y="0">O</tspan></text><text class="h" transform="translate(160.94 903.75) rotate(65.24)"><tspan x="0" y="0">r</tspan></text><text class="h" transform="translate(173.72 931.35) rotate(62.16)"><tspan x="0" y="0">a</tspan></text><text class="h" transform="translate(187.96 958.22) rotate(59.08)"><tspan x="0" y="0">n</tspan></text><text class="h" transform="translate(203.62 984.29) rotate(55.99)"><tspan x="0" y="0">g</tspan></text><text class="h" transform="translate(220.68 1009.5) rotate(52.9)"><tspan x="0" y="0">e</tspan></text><text class="h" transform="translate(239.06 1033.72) rotate(49.8)"><tspan x="0" y="0"> </tspan></text><text class="h" transform="translate(258.73 1056.93) rotate(46.7)"><tspan x="0" y="0">C</tspan></text><text class="h" transform="translate(279.64 1079.06) rotate(43.6)"><tspan x="0" y="0">o</tspan></text><text class="h" transform="translate(301.7 1100) rotate(40.51)"><tspan x="0" y="0">u</tspan></text><text class="h" transform="translate(324.85 1119.72) rotate(37.44)"><tspan x="0" y="0">n</tspan></text><text class="h" transform="translate(349 1138.16) rotate(34.4)"><tspan x="0" y="0">t</tspan></text><text class="h" transform="translate(374.02 1155.31) rotate(31.17)"><tspan x="0" y="0">y</tspan></text><text class="h" transform="translate(399.77 1170.92) rotate(28.38)"><tspan x="0" y="0">,</tspan></text><text class="h" transform="translate(426.54 1185.33) rotate(25.32)"><tspan x="0" y="0"> </tspan></text><text class="h" transform="translate(454.06 1198.3) rotate(22.24)"><tspan x="0" y="0">C</tspan></text><text class="h" transform="translate(482.22 1209.78) rotate(19.15)"><tspan x="0" y="0">a</tspan></text><text class="h" transform="translate(510.98 1219.72) rotate(16.06)"><tspan x="0" y="0">l</tspan></text><text class="h" transform="translate(540.24 1228.09) rotate(12.95)"><tspan x="0" y="0">i</tspan></text><text class="h" transform="translate(569.89 1234.87) rotate(9.86)"><tspan x="0" y="0">f</tspan></text><text class="h" transform="translate(599.88 1240.03) rotate(6.76)"><tspan x="0" y="0">o</tspan></text><text class="h" transform="translate(630.08 1243.57) rotate(3.68)"><tspan x="0" y="0">r</tspan></text><text class="h" transform="translate(660.45 1245.48) rotate(.6)"><tspan x="0" y="0">n</tspan></text><text class="h" transform="translate(690.85 1245.75) rotate(-2.47)"><tspan x="0" y="0">i</tspan></text><text class="h" transform="translate(721.24 1244.4) rotate(-5.54)"><tspan x="0" y="0">a</tspan></text><text class="h" transform="translate(842.26 162.52) rotate(18.88)"><tspan x="0" y="0">S</tspan></text><text class="h" transform="translate(868.1 171.31) rotate(21.79)"><tspan x="0" y="0">i</tspan></text><text class="h" transform="translate(893.47 181.41) rotate(24.69)"><tspan x="0" y="0">n</tspan></text><text class="h" transform="translate(918.28 192.78) rotate(27.57)"><tspan x="0" y="0">c</tspan></text><text class="h" transform="translate(942.53 205.39) rotate(30.43)"><tspan x="0" y="0">e</tspan></text><text class="h" transform="translate(966.12 219.21) rotate(33.27)"><tspan x="0" y="0"> </tspan></text><text class="h" transform="translate(988.98 234.17) rotate(36.13)"><tspan x="0" y="0">2</tspan></text><text class="h" transform="translate(1011.06 250.24) rotate(39.01)"><tspan x="0" y="0">0</tspan></text><text class="h" transform="translate(1032.3 267.39) rotate(41.9)"><tspan x="0" y="0">2</tspan></text><text class="h" transform="translate(1052.63 285.58) rotate(44.81)"><tspan x="0" y="0">0</tspan></text><path class="b" d="M429.09,249.1c80.29-47.82,175.03-73.43,275.37-68.77,272.62,12.64,483.37,243.9,470.72,516.51-1.07,23.12-3.72,45.8-7.83,67.94"/><path class="b" d="M937.6,1096.65c-81.05,49.19-177.1,75.63-278.93,70.91-272.62-12.64-483.37-243.9-470.72-516.51"/><g><path class="f" d="M959.38,695.18s-8.6-5.45-11.32-.42c0,0-10.28,21.18-32.29,43.2,0,0-6.29,5.87-7.55-1.68,0,0,1.68-10.28,1.68-103.17,0,0,2.31-2.52-2.1-8.39,0,0,0-2.94-13-7.55,0,0-9.02-3.36-11.74,1.26,0,0-3.56,9.65-45.29,83.88,0,0-9.02,19.29-38.17,46.55,0,0-19.29,10.28-16.36-12.58,0,0,2.1-9.86,39.84-103.59,0,0,2.94-5.24-2.94-8.39,0,0-7.76,.21-19.71,0,0,0-5.24-1.89-7.55,3.77,0,0-7.34,15.31-31.45,76.75,0,0-7.55,19.08-25.37,34.18,0,0-6.08,7.76-14.68,9.65,0,0-5.45,.84-7.97-7.97,0,0,.42-9.65,41.1-109.04,0,0,1.89-4.4-3.78-7.55,0,0-5.45-1.47-20.13-.42,0,0-5.24-2.31-8.39,5.03,0,0-2.52,8.6-24.33,61.23,0,0-9.02,23.49-29.78,43.2-.97,1.4-2.06,2.74-3.17,4.03-3.38,3.91-7.22,7.54-11.68,10.19-2.23,1.33-4.62,2.4-7.14,3.08-1.63,.44-3.24,1.05-4.94,1.14-.71,.04-1.63,.01-2.19-.5-.81-.73-1.44-2.29-1.61-3.35-.22-1.39-.06-.6-.2-2.01-.26-2.79-.07-8.49,.18-11.28,.46-4.99,2.83-9.48,4.69-14.05,2.16-5.31,4.31-10.63,6.46-15.95,3.62-8.98,7.23-17.97,10.83-26.96,5.45-13.6,10.89-27.2,16.32-40.81,0,0,2.94-13-7.13-6.71,0,0-9.02,7.34-25.58,10.9l-5.87-1.88s-3.98-11.12-14.68-15.31c0,0-8.39-8.39-32.71,2.52,0,0-20.55,3.15-44.46,67.52,0,0-5.03,14.47-23.07,29.78,0,0-10.48,11.32-28.94,10.9,0,0-5.87-.84-5.87-7.13,0,0,27.68-76.96,60.81-155.6,0,0,2.31-2.94-4.61-5.87,0,0-9.44-.21-20.97,.84,0,0-6.08,.42-7.55,5.03,0,0-7.34,19.29-56.62,143.01,0,0-2.31,7.34-6.29,4.19,0,0-7.13-2.1-33.55-18.87,0,0-2.52-3.15-.84-7.97,0,0,20.55-42.57,45.29-108.62,0,0,6.29-15.94,19.29-22.23,0,0,3.77-11.32-3.36-16.78,0,0-3.98-1.89-13,0,0,0-13,2.73-25.16,14.26,0,0-17.61,4.19-50.75-4.19,0,0-15.31-5.24-26-3.77,0,0-52.22-10.07-69.62,37.75,0,0-11.67,43.34,28.94,59.13,0,0,15.73,6.5,38.58-2.94,0,0,11.32-3.36,11.74-8.81,0,0-2.1-11.53-14.26-18.03,0,0-4.82,5.24-18.24,6.92,0,0-12.23-1.54-15.66-6.71-3.07-4.64-12.58-21.81,7.27-37.75,0,0,9.65-5.45,32.71-3.36,0,0,22.23,6.5,52.84,8.81,0,0,10.49,2.52,6.29,8.81,0,0-3.77,17.62-34.39,84.49,0,0-3.56,6.94-7.97,2.32,0,0-6.29-2.73-17.61-5.03,0,0-48.86-14.89-73.39,17.2,0,0-17.41,23.91-7.97,51.59,0,0,35.65,40.05,79.9,21.18,0,0,16.57-1.26,38.16-39,0,0,3.36-7.13,9.23-4.61,0,0,6.08,2.52,31.87,18.87,0,0,5.87,3.36,2.94,7.97,0,0-2.24,7.74-16.36,38.16,0,0-3.98,4.19-1.26,8.81,0,0,5.87,2.73,15.52,16.78,0,0,5.03,4.19,9.23-2.94,0,0,2.31-7.13,18.87-47.81,0,0,.84-5.87,7.97-7.55,0,0,5.03,2.31,29.36-.84,0,0,15.52-.84,27.68-17.61,0,0-5.1,36.21,28.1,37.03,0,0,18.03-.12,33.55-18.57,0,0,6.71-3.77,7.97,.84,0,0,6.08,10.48,13,14.68,0,0,9.02,4.61,17.61,2.5,0,0,24.54-5.44,45.09-29.13,0,0,.84,31.66,24.95,28.93,0,0,21.6,1.05,40.26-19.92,0,0,5.66-1.68,6.71,3.77,0,0,2.1,12.79,15.31,15.65,0,0,15.52,2.6,30.2-4.12,0,0,33.97-17.82,72.97-94.36,0,0,5.03-3.98,5.87,5.03,0,0,3.36,15.52,.84,49.91,0,0,1.26,11.32-6.29,15.94,0,0-6.92,7.97-19.29,.84,0,0-24.53-1.89-18.45,13.42,0,0,7.34,7.55,17.61,10.07,0,0,20.97,8.39,47.81-1.68,0,0,36.7-13.21,61.23-62.49,0,0,3.36-3.77-2.1-9.65Zm-582.96,19.71c-.42,3.96-5.24,11.77-21.81,23.91,0,0-5.66,7.97-21.81,7.97,0,0-46.55-13.84-13.42-43.62,0,0,28.94-13.42,57.04,5.45,0,0,.66,.04,0,6.29Zm251.53-43.41s-4.82,15.73-20.97,52.22c0,0-1.47,4.4-13.84,15.31,0,0-5.24,5.77-13.21,5.87,0,0-7.34,.1-11.32-5.45,0,0-7.23-41.62,36.07-88.07,0,0,30.05-16.97,23.28,20.13Z"/><g><path class="f" d="M470.11,904.84c3.88,5.8,.24,13,.24,13-7.01,6.63-10.76,7.75-10.76,7.75-6.18,5.78-10.9,.2-10.9,.2-14.58-39.79-1.31-70.45-1.31-70.45,46.06-94.19,140.24-60.08,140.24-60.08,40.6,17.7,50.57,57.36,50.57,57.36,14.64,54.26-34.73,94.61-34.73,94.61-24.39,19.33-60.57,14.13-60.57,14.13-17.63-1.35-24.85-6.25-24.85-6.25-4.44-2.01-7.03,5.16-7.03,5.16-19.59,51.54-22.72,63.76-22.72,63.76-.5,6.72-8.26,6.87-8.26,6.87-12.35,1.07-21.35,2.08-21.35,2.08-5.9-1.36-6.83-6.58-6.83-6.58,57.03-147.46,63.64-163.94,63.64-163.94,12-19.94,38.02-30.91,38.02-30.91,8.39,.05,8.48,4.88,8.48,4.88,4.1,6.43,2.7,10.02,2.7,10.02,.28,3.98-4.07,6.79-4.07,6.79-5.42,1.99-8.67,7.71-8.67,7.71-23.18,50.14-27.34,63.43-27.34,63.43-3.19,8.87,6.49,10.79,6.49,10.79,37.52,9.79,54.31-11.92,54.31-11.92,27.46-23.16,24.17-53.72,24.17-53.72-3.26-40-36.6-50.49-36.6-50.49-51.01-13.52-83.54,18.76-83.54,18.76-25.84,31.52-22.5,53.27-22.5,53.27-.05,8.6,3.19,13.78,3.19,13.78Z"/><path class="f" d="M1204.63,944c-1.76-4.3-5.14-5.78-5.14-5.78-5.35-2.14-8.28,5.75-8.28,5.75-10.99,25.23-30.81,42.24-30.81,42.24-3.04,2.01-6.43,.12-6.43,.12-4.58-88.14-1.14-106.24-1.14-106.24,.63-3.65,.18-5.6,.18-5.6-6.45-8.55-21.18-11.07-21.18-11.07-2.31-.03-5.13,2.47-5.13,2.47-41.62,92.78-80.36,129.58-80.36,129.58-17.35,14.59-22.68-1.53-22.68-1.53-1.86-9.61,5.68-25.55,5.68-25.55,32.77-87.16,34.36-91.81,34.36-91.81,2.15-4.51,9.99-4.38,9.99-4.38,7.15,1.26,11.47,.07,11.47,.07,10.56-3.69,8.95-14.71,8.95-14.71-1.44-2.49-7.33-2.94-7.33-2.94-5.01,1.07-8.67-.12-8.67-.12-3.63,.21-3.45-5.25-3.45-5.25,7.54-15.8,9.3-26.04,9.3-26.04,2.85-4.67-8.78-5.99-8.78-5.99-8.11-.13-17.6,1.17-17.6,1.17-5.71,1.36-6.86,7.12-6.86,7.12-4.13,18.39-10.41,26.48-10.41,26.48-1.83,7.02-10,3.82-10,3.82-9.5,.32-12.57,.79-12.57,.79-4.99,2.61-7.95,8.54-7.95,8.54-.98,7.57,6.59,8.55,6.59,8.55,7.26-.55,11.17-.77,11.17-.77,2.83,2.04,1.54,7.52,1.54,7.52-16.4,50.08-32.61,81.01-32.61,81.01-10.22,22-34.54,37.56-34.54,37.56-4.82,4.14-10.01,2.98-10.01,2.98-7.14-.43-4.77-16.13-4.77-16.13,20.05-49.31,27.69-74.62,27.69-74.62,9.7-19.62-4.01-35.16-4.01-35.16-10.25-9.74-33.03-1.9-33.03-1.9-11.82,3.72-18.8,11.82-18.8,11.82-2.3,4.24-8.97,1.57-8.97,1.57-9.29-6.26-17.73-8.9-17.73-8.9-5.91-2.13-8.62,2.68-8.62,2.68-16.28,49.24-30.2,75.23-30.2,75.23-16.12,27.85-38.44,45.46-38.44,45.46-14.95,7.83-14.62-4.48-14.62-4.48-1.55-8.22,.86-13.72,.86-13.72,21.63-47.24,24.21-66.17,24.21-66.17,10.06-15.15,12.87-29.88,12.87-29.88,.21-3.78-5.73-7.16-5.73-7.16-9.1,7.02-22.13,12.72-22.13,12.72-4.69,3.16-8.66,.44-8.66,.44-12.48-16.97-17.93-16.72-17.93-16.72-15.05-5.03-27.69-.32-27.69-.32-21.32,11.58-36.54,42.49-36.54,42.49-10.31,16.97-14.45,34.95-14.45,34.95-21.43,35.36-41.28,50.55-41.28,50.55-13.46,5.42-12.88-.88-12.88-.88-5.86-6.88,2.88-25.5,2.88-25.5,38.97-99.86,54.89-145.88,54.89-145.88,5.45-7.65-4.3-9.15-4.3-9.15-13.65-.79-18.87,.35-18.87,.35-7.72,2.24-8.67,7.71-8.67,7.71-46.86,118.95-57.9,156.7-57.9,156.7-11.7,47.62,33.07,41.33,33.07,41.33,23.19-4.84,46.26-34.98,46.26-34.98,6.27,51.2,48.89,27.61,48.89,27.61,11.34-6.64,16.25-13.45,16.25-13.45,3.45-2.16,5.9,1.29,5.9,1.29,23.35,37.46,64.01-1.47,64.01-1.47-.72,6.45,.19,10.06,.19,10.06,.61,2.65,3.96,2.16,3.96,2.16,11.8,2.86,20.71,1.01,20.71,1.01,6.41-1.1,8.76-10.23,8.76-10.23,28.06-77.43,32.73-89.33,32.73-89.33,18.23-19.85,30.62-22.32,30.62-22.32,15.23-.42,10.94,16.85,10.94,16.85-23.31,54.55-25,68.98-25,68.98-3.01,40.88,24.49,38.61,24.49,38.61,35.65-.4,50.92-28.68,50.92-28.68-3.6,32.09,36.86,27.14,36.86,27.14,13.8-2.21,19.69-8.9,19.69-8.9,26.05-20.2,34.04-34.19,34.04-34.19,24.03-38.34,31.69-55.12,31.69-55.12,4.06-7.07,7.79-2.1,7.79-2.1,4.92,53.88,1.19,63.74,1.19,63.74-3.17,10.13-13.22,10.87-13.22,10.87-6.68,1.8-13.21-3.39-13.21-3.39l-7.83,.15c-6.37,3.47-9.36,7.72-9.36,7.72-6.71,7.68,22.43,18.32,22.43,18.32,15.44,3.35,31.87-.59,31.87-.59,28.38-7.94,41.61-25.66,41.61-25.66,27.75-34.07,29.4-43.05,29.4-43.05,3.25-5.93-.12-6.43-.12-6.43Zm-435.98,36.93s-8.13,13.85-18.66,19.08c0,0-9.2,1.29-14.01-1.7,0,0-6.55-6.31-5.05-15.85,0,0,2.93-37.81,36.33-76.28,0,0,21.25-15.12,25.14,13.19,0,0-10.41,32.5-23.74,61.55Z"/></g><g><g><path class="g" d="M278.28,365.92c11.46,8.67,11.74,15.1,11.74,15.1-1.96,17.89-35.23,16.78-35.23,16.78-22.65-4.19-32.58-12.88-37.17-22.54-30.49-64.13,43.88-76.43,43.88-76.43,13.14-1.68,43.06,2.8,43.06,2.8,60.11,16.5,97.3,20.69,97.3,20.69,37.47,6.15,59.27-3.91,59.27-3.91,26.56-2.24,20.13,13.42,20.13,13.42-11.46,30.48-86.12,16.31-86.12,16.31-6.99,4.65-8.39,11.09-8.39,11.09l-46.41,114.63c-23.49,65.43-72.14,70.46-72.14,70.46-15.38,3.63-33.55-2.8-33.55-2.8-34.11-16.22-35.23-34.11-35.23-34.11-17.34-77.17,54.8-78.29,54.8-78.29,8.39,15.38,2.24,22.93,2.24,22.93-23.23,7.94-28.65,18.68-31.25,28.47-8.46,31.92,23.42,35.83,23.42,35.83,26,3.08,41.94-15.66,41.94-15.66,12.86-6.71,67.1-153.22,67.1-153.22,1.4-5.87-6.71-7.27-6.71-7.27-44.74-10.9-83.88-13.98-83.88-13.98-34.67,1.68-34.8,32.87-16.86,42.05,10.71,5.48,28.04-2.35,28.04-2.35Z"/><path class="d" d="M278.28,365.92c11.46,8.67,11.74,15.1,11.74,15.1-1.96,17.89-35.23,16.78-35.23,16.78-22.65-4.19-32.58-12.88-37.17-22.54-30.49-64.13,43.88-76.43,43.88-76.43,13.14-1.68,43.06,2.8,43.06,2.8,60.11,16.5,97.3,20.69,97.3,20.69,37.47,6.15,59.27-3.91,59.27-3.91,26.56-2.24,20.13,13.42,20.13,13.42-11.46,30.48-86.12,16.31-86.12,16.31-6.99,4.65-8.39,11.09-8.39,11.09l-46.41,114.63c-23.49,65.43-72.14,70.46-72.14,70.46-15.38,3.63-33.55-2.8-33.55-2.8-34.11-16.22-35.23-34.11-35.23-34.11-17.34-77.17,54.8-78.29,54.8-78.29,8.39,15.38,2.24,22.93,2.24,22.93-23.23,7.94-28.65,18.68-31.25,28.47-8.46,31.92,23.42,35.83,23.42,35.83,26,3.08,41.94-15.66,41.94-15.66,12.86-6.71,67.1-153.22,67.1-153.22,1.4-5.87-6.71-7.27-6.71-7.27-44.74-10.9-83.88-13.98-83.88-13.98-34.67,1.68-34.8,32.87-16.86,42.05,10.71,5.48,28.04-2.35,28.04-2.35Z"/></g><path class="f" d="M867.81,457.4c-32.71,53.12-46.41,55.92-46.41,55.92-11.74,10.49-12.86-8.95-12.86-8.95-1.96-2.66,27.96-79.41,27.96-79.41,9.51-17.06,11.18-26.84,11.18-26.84-1.68-5.59-5.59-3.91-5.59-3.91-16.16,9.48-27.96,11.74-27.96,11.74l-5.03-3.36c-5.59-13.84-21.53-16.22-21.53-16.22-31.46,.42-43.34,18.45-43.34,18.45-24.18,37.75-29.36,56.36-29.36,56.36-15.38,32.69-39.42,53.24-39.42,53.24-10.21,3.91-12.02-8.11-12.02-8.11-1.82-6.01,21.25-58.16,21.25-58.16,4.47-13.14-3.91-25.16-3.91-25.16-14.26-17.61-30.48-26.56-30.48-26.56l-.56-4.75c7.83-8.95,7.27-17.89,7.27-17.89-5.45-9.79-16.22-12.02-16.22-12.02-21.95,13.42-21.12,28.24-21.12,28.24-3.49,11.6,4.9,16.5,4.9,16.5,4.19,6.29-4.9,19.01-4.9,19.01-30.89,67.66-59.97,89.75-59.97,89.75-7.69,4.33-10.07-6.99-10.07-6.99-.98-7.27,1.4-11.74,1.4-11.74,14.49-34.69,20.13-56.2,20.13-56.2,.42-11.04-5.87-18.73-5.87-18.73-12.02-14.68-29.36-24.88-29.36-24.88-3.08-1.4,0-5.59,0-5.59,5.59-7.13,6.99-17.89,6.99-17.89-2.8-6.43-15.1-10.07-15.1-10.07-26.42,5.03-22.09,35.79-22.09,35.79,6.01,8.11,5.03,16.5,5.03,16.5-34.39,68.78-54.24,80.8-54.24,80.8-25.3,20.69-43.06,20.13-43.06,20.13-11.32,.56-18.45-3.63-18.45-3.63-6.85-4.47-8.67-10.62-8.67-10.62-6.99-13.28,3.36-24.6,3.36-24.6,36.07,8.67,65.98-16.9,65.98-16.9,19.57-28.95,16.22-44.61,16.22-44.61-2.52-43.9-60.95-25.16-60.95-25.16-82.48,69.78-47.53,132.53-47.53,132.53,17.34,14.82,36.91,13.98,36.91,13.98,43.06-1.96,62.63-23.49,62.63-23.49,40.54-43.9,58.72-87.23,58.72-87.23,3.63-6.15,12.86,0,12.86,0,7.83,8.39,3.91,19.57,3.91,19.57-25.44,50.61-19.57,68.22-19.57,68.22-1.12,19.01,20.55,22.94,20.55,22.94,23.07,2.23,33.69-12.31,33.69-12.31,52.28-58.99,61.51-97.3,61.51-97.3,3.91-7.83,10.07-3.91,10.07-3.91,12.02,10.9,9.51,19.57,9.51,19.57-23.49,47.81-21.25,66.54-21.25,66.54-3.08,18.73,19.01,27.64,19.01,27.64,35.79,2.97,54.24-33.79,54.24-33.79-.28,31.59,26.28,34.12,26.28,34.12,28.52,1.95,36.35-17.9,36.35-17.9,5.31-4.47,10.62,1.12,10.62,1.12,6.99,17.34,21.81,16.92,21.81,16.92,15.38,1.81,29.64-10.77,29.64-10.77,44.46-39.14,49.21-60.39,49.21-60.39-1.96-9.23-12.3-9.51-12.3-9.51Zm-443.44-44.46h15.66s3.36,6.71,0,14.82c0,0-9.79,27.68-23.49,31.87,0,0-15.38,2.24-20.13,0,0,0,1.68-22.09,27.96-46.69Zm375.64,22.75s-4.19,17.2-21.18,52.21c0,0-2.94,7.13-13.63,15.73,0,0-18.98,17.62-25.79-5.03,0,0-.84-36.72,34.39-79.69,0,0,33.61-19.71,26.21,16.78Z"/></g></g></svg>